<?xml version="1.0" encoding="utf-8"?>
<svg width="867" height="1173" viewBox="0 0 867 1173" fill="none" xmlns="http://www.w3.org/2000/svg">
  <g>
    <rect width="867" height="1173" fill="#FFFFFF" fill-rule="evenodd" fill-opacity="0" />
    <g transform="translate(93 572.642)">
      <path d="M0 63L236 0L205 182L0 63Z" fill="#178481" fill-rule="evenodd" transform="translate(0 8.358)" />
      <path d="M231.001 38.448L3.79337 0L0 211.859L231.002 51.3582L231.001 38.448L231.001 38.448Z" fill="#169390" fill-rule="evenodd" transform="translate(411 0)" />
    </g>
    <g transform="translate(204.5 0)">
      <path d="M49.5 118.5C49.5 53.0542 127.179 0 223 0C318.821 0 411.5 69.5542 411.5 135C411.5 139.275 396.511 279 396.511 279L346.5 394L350.396 515.663L336 679.5L357 780.5L448 860L311.837 914L0 860L59.5 780.5L81.5 679.5L104 501L104 416L49.5 307L49.5 238L75.4111 183C75.4111 183 49.5 142.075 49.5 118.5L49.5 118.5Z" fill="#169369" fill-rule="evenodd" transform="translate(0 95)" />
      <path d="M197.842 32.6738L257.342 2.17401L252.342 79.6741L209.342 106.674L0 65.5001L10 0L87.8418 26.1738L197.842 32.6738Z" fill="#13825D" fill-rule="evenodd" transform="translate(90.158 633.326)" />
      <path d="M0 9.5L14 15L26.5 0L42.5 15L86.5 0L44.5 19.5L26.5 9.5L14 19.5L0 9.5Z" fill="#FFFFFF" fill-rule="evenodd" transform="translate(112.5 401.5)" />
      <path d="M28.5 163L0 89.5L0 0L74 72.5L106 134.5" fill="#169369" fill-rule="evenodd" transform="translate(57.5 0)" />
      <path d="M17.2076 98L0 53.8098L0 0L44.6792 43.589L64 80.865L40 98" fill="#51AE8F" fill-rule="evenodd" transform="translate(79.5 48)" />
      <path d="M81.9999 202.5L100.723 134.265L104.649 57.0884L68 0L32 95.5001L0 157.5" fill="#169369" fill-rule="evenodd" transform="translate(291.5 0)" />
      <path d="M47.865 92.0001L13.2136 121L0 100.16L13.2139 70.2693L35.9023 0L59 42.0058L47.865 92.0001L47.865 92.0001Z" fill="#51AE8F" fill-rule="evenodd" transform="translate(323.5 54)" />
      <path d="M0 5.5L43 16.5L64 16.5L84.5 5.5L110.5 16.5L155 0L149.5 43L86.5 59.5L31.5 59.5L0 5.5Z" fill="#138A62" fill-rule="evenodd" transform="translate(116.5 480)" />
      <path d="M117.023 0C117.023 0 79.7371 35.7859 52.5694 2.25076C52.5694 2.25076 51.7585 3.11673 51.136 4.57013L51.116 4.55161C31.4619 32.1202 0 6.33661 0 6.33661C0 6.33661 12.571 32.1592 36.808 22.8845C46.0108 19.3629 50.2884 15.8723 52.0533 12.8972C54.4954 16.5771 60.1781 20.7122 72.1928 24.4415C103.502 34.1599 117.023 0 117.023 0L117.023 0Z" fill="#13825D" fill-rule="evenodd" transform="translate(144.984 475.106)" />
      <path d="M48.1245 6.52884C44.0329 16.7774 34.0074 34.7605 15.841 27.5C-0.305267 21.0469 -0.976166 11.3951 0.545685 5.40927C1.34839 2.25211 5.33609 0.864166 8.48395 1.70264C13.2673 2.97665 20.4312 4.5 27.3408 4.5C33.507 4.5 39.4706 3.28683 43.7796 2.1203C47.4572 1.12473 49.5371 2.99051 48.1245 6.52884Z" fill="#8AC9B4" fill-rule="evenodd" transform="translate(272.659 278)" />
      <path d="M13 0L0 28.2239L23 4.2239L17.7568 1.5L13 0Z" fill="#138A62" fill-rule="evenodd" transform="translate(290.5 111)" />
      <path d="M8.95853 0.154114L0 18.7605L15.8497 2.22168C15.8497 2.22168 9.4296 -0.692017 8.95853 0.154114Z" fill="#138A62" fill-rule="evenodd" transform="matrix(0.454 -0.891 0.891 0.454 70.501 160)" />
      <path d="M0 38.5C0 38.5 9.25 26 17.5 23C25.75 20 33 26.5 33 26.5C33 26.5 32.875 20 47 23C61.125 26 89.5 38.5 89.5 38.5L55 10L44 0C44 0 37.875 5.625 29.5 10C21.125 14.375 10.5 17.5 10.5 17.5L0 38.5Z" fill="#2E9E78" fill-rule="evenodd" transform="translate(104.5 294.5)" />
      <path d="M2.19001 8.14743L4.34973 4.66321Q4.40154 4.57963 4.45889 4.49975Q4.51623 4.41987 4.57886 4.34406Q4.64149 4.26825 4.70911 4.19685Q4.77672 4.12546 4.84902 4.05881Q4.92132 3.99216 4.99796 3.93055Q5.07461 3.86895 5.15525 3.81268Q5.23589 3.75641 5.32016 3.70574Q5.40443 3.65506 5.49194 3.6102Q5.57944 3.56535 5.66979 3.52652Q5.76013 3.4877 5.8529 3.45508Q5.94566 3.42246 6.04042 3.3962Q6.13519 3.36994 6.23151 3.35016Q6.32783 3.33038 6.42527 3.31717Q6.52271 3.30396 6.62083 3.29738Q6.71894 3.2908 6.81727 3.29087Q6.9156 3.29095 7.01371 3.29769Q7.11181 3.30443 7.20923 3.3178Q7.30665 3.33116 7.40294 3.3511Q7.49923 3.37103 7.59395 3.39744Q7.68867 3.42385 7.78138 3.45662Q7.87409 3.48938 7.96438 3.52835Q8.05466 3.56732 8.14209 3.61231Q8.22953 3.65731 8.31371 3.70812Q8.3979 3.75893 8.47845 3.81533Q8.559 3.87173 8.63555 3.93345Q8.7121 3.99518 8.78429 4.06195Q8.85648 4.12871 8.92398 4.20022Q8.99148 4.27172 9.05399 4.34763Q9.11649 4.42354 9.17371 4.50351Q9.23093 4.58348 9.2826 4.66714Q9.33428 4.7508 9.38016 4.83777Q9.42605 4.92474 9.46594 5.01462L19.3466 27.2762Q19.4316 27.4676 19.5431 27.6448Q19.6547 27.822 19.7905 27.9814Q19.9264 28.1407 20.0837 28.2789Q20.241 28.417 20.4166 28.5312Q20.5921 28.6453 20.7822 28.7331Q20.9724 28.8208 21.1731 28.8803Q21.3738 28.9398 21.5811 28.9699Q21.7883 29 21.9977 29L27.8795 29Q28.0888 29 28.2961 28.9699Q28.5033 28.9398 28.704 28.8803Q28.9048 28.8208 29.0949 28.7331Q29.285 28.6453 29.4605 28.5312Q29.6361 28.417 29.7934 28.2789Q29.9507 28.1407 30.0866 27.9814Q30.2224 27.822 30.334 27.6448Q30.4455 27.4676 30.5305 27.2762L41.5054 2.54929Q41.5618 2.4223 41.63 2.30128Q41.6982 2.18026 41.7777 2.06632Q41.8572 1.95238 41.9473 1.84656Q42.0373 1.74073 42.137 1.644Q42.2367 1.54727 42.3453 1.46051Q42.4538 1.37376 42.5701 1.29777Q42.6864 1.22178 42.8094 1.15726Q42.9325 1.09274 43.0611 1.04027Q43.1898 0.987806 43.3228 0.947877Q43.4559 0.907948 43.5922 0.880921Q43.7285 0.853895 43.8667 0.840018Q44.005 0.826141 44.1439 0.825541Q44.2828 0.824942 44.4212 0.837624Q44.5595 0.850307 44.696 0.876156Q44.8325 0.902004 44.966 0.940783Q45.0994 0.979561 45.2285 1.03091L60.878 7.25626Q60.9903 7.30094 61.0985 7.35482Q61.2068 7.4087 61.3101 7.4714Q61.4135 7.5341 61.5113 7.60518Q61.6091 7.67626 61.7006 7.75524Q61.7921 7.83421 61.8768 7.92053Q61.9614 8.00685 62.0386 8.09992Q62.1158 8.19298 62.1849 8.29214Q62.2541 8.3913 62.3148 8.49588Q62.3754 8.60045 62.4272 8.70971Q62.4789 8.81897 62.5214 8.93216Q62.5639 9.04534 62.5968 9.16167Q62.6297 9.278 62.6528 9.39667Q62.6759 9.51533 62.6891 9.63551Q62.7022 9.75569 62.7053 9.87654Q62.7085 9.9974 62.7015 10.1181Q62.6946 10.2388 62.6776 10.3585Q62.6606 10.4782 62.6337 10.5961Q62.6068 10.7139 62.5703 10.8291Q62.5337 10.9444 62.4876 11.0562Q62.4415 11.1679 62.3863 11.2755Q62.3311 11.383 62.2672 11.4856Q62.2032 11.5882 62.131 11.6851Q62.0587 11.7821 61.9786 11.8726Q61.8985 11.9632 61.8112 12.0468Q61.7238 12.1304 61.6298 12.2064Q61.5358 12.2824 61.4358 12.3503Q61.3358 12.4183 61.2305 12.4777Q61.1252 12.537 61.0153 12.5875Q60.9054 12.6379 60.7917 12.679Q60.678 12.72 60.5613 12.7515Q60.4446 12.783 60.3257 12.8047Q60.2067 12.8264 60.0864 12.838L37.5796 15.0247Q37.3888 15.0433 37.202 15.0868Q37.0153 15.1303 36.8359 15.198Q36.6565 15.2657 36.4876 15.3564Q36.3187 15.4472 36.1632 15.5594Q36.0077 15.6715 35.8683 15.8032Q35.7289 15.9349 35.6081 16.0838Q35.4873 16.2327 35.3871 16.3961Q35.2869 16.5596 35.2091 16.7349L30.599 27.1219Q30.5155 27.31 30.4063 27.4844Q30.297 27.6588 30.1643 27.8161Q30.0315 27.9734 29.8779 28.1103Q29.7243 28.2473 29.5528 28.3612Q29.3814 28.475 29.1956 28.5636Q29.0098 28.6521 28.8134 28.7135Q28.6169 28.7749 28.4138 28.808Q28.2107 28.841 28.0049 28.8451L22.0381 28.9622Q21.8251 28.9664 21.6139 28.9394Q21.4026 28.9124 21.1976 28.8549Q20.9925 28.7974 20.7981 28.7105Q20.6037 28.6236 20.424 28.5093Q20.2443 28.395 20.0833 28.2556Q19.9222 28.1163 19.7833 27.9549Q19.6443 27.7935 19.5304 27.6136Q19.4165 27.4336 19.3301 27.239L14.276 15.8518Q14.206 15.6941 14.1178 15.5458Q14.0296 15.3976 13.9245 15.2608Q13.8194 15.124 13.6988 15.0007Q13.5781 14.8773 13.4438 14.7691Q13.3094 14.6609 13.1631 14.5695Q13.0169 14.478 12.8608 14.4045Q12.7047 14.331 12.541 14.2765Q12.3774 14.222 12.2084 14.1873L4.07185 12.5166Q3.98645 12.4991 3.90226 12.4765Q3.81807 12.4538 3.73539 12.4262Q3.65271 12.3985 3.57183 12.366Q3.49096 12.3334 3.41219 12.296Q3.33343 12.2587 3.25704 12.2167Q3.18066 12.1746 3.10694 12.1281Q3.03322 12.0815 2.96243 12.0307Q2.89163 11.9798 2.82403 11.9247Q2.75642 11.8697 2.69224 11.8107Q2.62806 11.7517 2.56754 11.6889Q2.50702 11.6262 2.45037 11.5599Q2.39373 11.4936 2.34117 11.4241Q2.28861 11.3545 2.24033 11.2819Q2.19204 11.2093 2.1482 11.134Q2.10436 11.0586 2.06513 10.9808Q2.02589 10.9029 1.99141 10.8228Q1.95692 10.7428 1.9273 10.6608Q1.89769 10.5788 1.87305 10.4951Q1.84842 10.4115 1.82885 10.3266Q1.80928 10.2416 1.79484 10.1556Q1.78041 10.0696 1.77117 9.98295Q1.76193 9.89626 1.75791 9.80917Q1.7539 9.72208 1.75512 9.63491Q1.75634 9.54774 1.76279 9.4608Q1.76924 9.37385 1.78091 9.28745Q1.79257 9.20106 1.80941 9.11551Q1.82624 9.02997 1.84818 8.94559Q1.87012 8.86122 1.89709 8.77831Q1.92405 8.69541 1.95595 8.61427Q1.98785 8.53313 2.02457 8.45406Q2.06128 8.37498 2.10268 8.29826Q2.14408 8.22153 2.19001 8.14743Z" fill="#13825D" fill-rule="evenodd" transform="translate(112.5 324)" />
      <path d="M91.5 9L18 0L0 39L91.5 9Z" fill="#138A62" fill-rule="evenodd" transform="translate(57.5 278)" />
    </g>
    <g transform="translate(0.5 612)">
      <path d="M0 94L0 337.5L411 445.5L411 0" fill="#178481" fill-rule="evenodd" transform="translate(92.5 115)" />
      <path d="M231 0L231 415L0 560.5L0 115" fill="#169390" fill-rule="evenodd" transform="translate(503.5 0)" />
      <path d="M0 157L89.5 0L504 81L402 240.5L0 157Z" fill="#169390" fill-rule="evenodd" transform="translate(0 31.5)" />
      <path d="M363 98L231 0L0 115L137 203L363 98L363 98Z" fill="#178481" fill-rule="evenodd" transform="translate(503.5 0)" />
    </g>
    <g transform="translate(673 908)">
      <path d="M0 0L0 194.045L57.3057 162.062L93.0261 224L137.5 198.294L102.167 137.026L154 108.098L0 0L0 0Z" fill="#D3D3D3" fill-rule="evenodd" />
      <path d="M0 107.478L0 61.9055C7.57031 63.561 15.4336 64.4333 23.5 64.4333C67.9102 64.4333 106.146 37.9954 123.325 0L154 21.5313L102.167 50.4592L137.5 111.728L93.0264 137.433L57.3057 75.4956L0 107.478L0 107.478Z" fill="#BCBCBC" fill-rule="evenodd" transform="translate(0 87)" />
    </g>
  </g>
</svg>